<?xml version="1.0" encoding="iso-8859-1"?>
<!-- Uploaded to: SVG Repo, www.svgrepo.com, Generator: SVG Repo Mixer Tools -->
<svg version="1.1" id="Layer_1" xmlns="http://www.w3.org/2000/svg" xmlns:xlink="http://www.w3.org/1999/xlink" 
	 viewBox="0 0 511.985 511.985" xml:space="preserve">
<g>
	<path style="fill:#434A54;" d="M266.651,206.271c-2.117,0-4.258-0.625-6.125-1.938c-4.82-3.39-5.984-10.046-2.594-14.858
		l31.999-45.529c3.391-4.827,10.047-5.983,14.875-2.594c4.812,3.375,5.968,10.03,2.594,14.858l-32.016,45.53
		C273.306,204.693,270.002,206.271,266.651,206.271z"/>
	<path style="fill:#434A54;" d="M245.332,206.271c-3.352,0-6.656-1.578-8.734-4.53l-32.006-45.53
		c-3.383-4.828-2.227-11.483,2.594-14.858c4.82-3.39,11.476-2.233,14.867,2.594l31.998,45.529c3.39,4.812,2.227,11.469-2.593,14.858
		C249.59,205.646,247.449,206.271,245.332,206.271z"/>
</g>
<g>
	<path style="fill:#DA4453;" d="M150.578,449.552L150.578,449.552c-7.484,0-14.914-1.812-22.078-5.438
		c-52.396-26.374-80.2-57.342-82.637-92.091c-3.609-51.466,50.38-89.535,52.685-91.128c1.945-1.344,4.297-2.016,6.664-1.875
		l130.034,7.202c5.656,0.312,10.078,4.984,10.078,10.648v64.402c0,1.281-0.227,2.531-0.656,3.719
		c-0.383,1.031-9.546,25.656-24.944,50.687C197.732,431.427,174.468,449.552,150.578,449.552z"/>
	<path style="fill:#DA4453;" d="M361.413,449.552c-23.891,0-47.154-18.125-69.153-53.873c-15.391-25.03-24.562-49.655-24.938-50.687
		c-0.438-1.188-0.663-2.438-0.663-3.719v-64.402c0-5.664,4.421-10.336,10.085-10.648l130.026-7.202
		c2.375-0.141,4.719,0.531,6.672,1.875c2.297,1.593,56.294,39.662,52.685,91.128c-2.438,34.749-30.248,65.717-82.638,92.091
		C376.318,447.739,368.896,449.552,361.413,449.552z"/>
</g>
<path style="opacity:0.1;enable-background:new    ;" d="M373.334,374.085c0,5.906-4.766,10.688-10.671,10.688
	c-5.891,0-10.656-4.781-10.656-10.688c0-5.874,4.766-10.655,10.656-10.655C368.568,363.43,373.334,368.211,373.334,374.085z"/>
<path style="opacity:0.1;enable-background:new    ;" d="M394.677,331.431c0,5.875-4.781,10.655-10.672,10.655
	c-5.89,0-10.671-4.78-10.671-10.655c0-5.906,4.781-10.687,10.671-10.687C389.895,320.744,394.677,325.524,394.677,331.431z"/>
<path style="opacity:0.1;enable-background:new    ;" d="M352.007,331.431c0,5.875-4.781,10.655-10.672,10.655
	s-10.672-4.78-10.672-10.655c0-5.906,4.781-10.687,10.672-10.687S352.007,325.524,352.007,331.431z"/>
<path style="opacity:0.1;enable-background:new    ;" d="M138.649,331.431c0,5.875-4.773,10.655-10.664,10.655
	c-5.89,0-10.671-4.78-10.671-10.655c0-5.906,4.781-10.687,10.671-10.687C133.876,320.744,138.649,325.524,138.649,331.431z"/>
<path style="opacity:0.1;enable-background:new    ;" d="M181.319,331.431c0,5.875-4.773,10.655-10.664,10.655
	c-5.898,0-10.671-4.78-10.671-10.655c0-5.906,4.773-10.687,10.671-10.687C176.546,320.744,181.319,325.524,181.319,331.431z"/>
<path style="opacity:0.1;enable-background:new    ;" d="M159.984,374.085c0,5.906-4.773,10.688-10.663,10.688
	c-5.898,0-10.672-4.781-10.672-10.688c0-5.874,4.773-10.655,10.672-10.655C155.21,363.43,159.984,368.211,159.984,374.085z"/>
<g>
	<path style="fill:#ED5564;" d="M234.66,287.526c-0.203,0-0.398,0-0.594,0l-170.985-9.468c-0.781-0.062-1.555-0.188-2.305-0.406
		c-12.226-3.438-20.703-18.538-27.476-48.976c-3.594-16.171-5.531-31.654-6.109-36.67c-2.656-6.219-12.578-30.108-19.694-55.966
		c-12.273-44.624-9.5-71.014,8.484-80.7c3.438-1.844,7.492-2.781,12.062-2.781c27.358,0,77.224,35.561,114.761,68.856
		c49.498,43.889,87.535,91.309,101.753,126.854c0.508,1.266,0.766,2.609,0.766,3.969v24.632c0,2.938-1.203,5.719-3.336,7.749
		C240.004,286.495,237.379,287.526,234.66,287.526z"/>
	<path style="fill:#ED5564;" d="M277.338,287.526c-2.734,0-5.359-1.031-7.344-2.906c-2.125-2.03-3.335-4.812-3.335-7.749v-24.632
		c0-1.359,0.257-2.703,0.765-3.969c14.227-35.546,52.257-82.966,101.754-126.854C406.724,88.12,456.581,52.56,483.939,52.56
		c4.578,0,8.625,0.938,12.062,2.781c17.983,9.687,20.765,36.076,8.483,80.7c-7.108,25.857-17.03,49.747-19.687,55.966
		c-0.578,5.016-2.515,20.499-6.108,36.67c-6.781,30.438-15.25,45.538-27.483,48.976c-0.75,0.219-1.516,0.344-2.297,0.406
		l-170.993,9.468C277.728,287.526,277.525,287.526,277.338,287.526z"/>
</g>
<path style="fill:#656D78;" d="M255.995,182.069c-17.648,0-32.007,14.359-32.007,32.015v213.344
	c0,17.655,14.359,31.999,31.999,31.999c17.647,0,32.006-14.344,32.006-31.999V214.084
	C287.994,196.429,273.635,182.069,255.995,182.069z"/>
<g>
	<rect x="223.993" y="214.083" style="fill:#434A54;" width="64" height="21.327"/>
	<rect x="223.993" y="406.083" style="fill:#434A54;" width="64" height="21.344"/>
	<rect x="223.993" y="363.433" style="fill:#434A54;" width="64" height="21.343"/>
	<rect x="223.993" y="320.743" style="fill:#434A54;" width="64" height="21.342"/>
	<rect x="223.993" y="278.093" style="fill:#434A54;" width="64" height="21.343"/>
</g>
<g>
	<path style="fill:#FFCE54;" d="M394.677,171.414c-17.655,0-32.014,14.343-32.014,31.999c0,17.64,14.358,31.998,32.014,31.998
		c17.641,0,31.999-14.358,31.999-31.998C426.676,185.757,412.317,171.414,394.677,171.414z"/>
	<path style="fill:#FFCE54;" d="M117.314,171.414c-17.648,0-31.999,14.343-31.999,31.999c0,17.64,14.351,31.998,31.999,31.998
		s32.007-14.358,32.007-31.998C149.321,185.757,134.962,171.414,117.314,171.414z"/>
</g>
</svg>