<svg version="1.1" id="Layer_1" xmlns="http://www.w3.org/2000/svg" xmlns:xlink="http://www.w3.org/1999/xlink" x="0px" y="0px"
	 width="100%" viewBox="0 0 315 212" enable-background="new 0 0 315 212" xml:space="preserve">
<path fill="#FFFFFF" opacity="1.000000" stroke="none" 
	d="
M180.000000,213.000000 
	C120.000008,213.000000 60.500015,213.000000 1.000016,213.000000 
	C1.000011,142.333344 1.000011,71.666695 1.000005,1.000035 
	C105.999969,1.000023 210.999939,1.000023 315.999939,1.000012 
	C315.999939,71.666634 315.999939,142.333267 315.999969,212.999939 
	C270.833344,213.000000 225.666672,213.000000 180.000000,213.000000 
M32.974590,134.954834 
	C32.974590,134.954834 32.881523,134.932251 32.195049,135.034882 
	C31.864561,135.797531 31.534073,136.560181 31.122444,137.695053 
	C31.122444,137.695053 30.847584,137.958832 30.170557,138.057907 
	C28.822775,140.776550 27.474993,143.495193 26.020201,146.626938 
	C26.020201,146.626938 25.755156,146.961395 25.339622,147.210831 
	C25.097639,147.473099 25.024467,147.776154 25.106106,148.128250 
	C25.106106,148.128250 25.138885,148.141922 24.421270,148.151520 
	C22.062517,151.393799 18.607374,154.300476 21.063000,159.771698 
	C20.621698,161.174042 20.180395,162.576385 19.315359,164.352844 
	C19.181828,164.893005 19.048298,165.433151 18.244736,166.080719 
	C17.446611,169.776108 16.629030,173.467712 15.906547,177.177826 
	C15.869564,177.367737 16.648941,177.716644 17.003191,178.742889 
	C17.005806,179.494812 17.008423,180.246735 17.006195,181.785446 
	C17.187048,183.026611 17.367901,184.267761 17.548752,185.508926 
	C17.940664,185.456085 18.332577,185.403244 18.724487,185.350403 
	C18.804886,183.897995 18.885283,182.445602 19.232483,180.409134 
	C19.469725,179.603424 19.706968,178.797714 20.532307,177.698135 
	C20.688643,176.465225 20.844976,175.232300 21.050426,173.382828 
	C21.084240,172.973099 21.118052,172.563354 21.822794,171.907120 
	C24.859110,166.167801 27.840639,160.398346 30.967915,154.709030 
	C31.814629,153.168640 32.843918,151.060410 34.236935,150.616226 
	C38.119286,149.378159 38.431789,146.931351 37.943890,143.882446 
	C37.943890,143.882446 37.676445,143.652328 38.424725,143.816284 
	C40.550629,141.751678 42.676537,139.687057 45.018051,137.252640 
	C45.219303,137.032394 45.467556,136.900894 46.325184,136.836777 
	C46.549179,136.554657 46.773174,136.272537 47.194141,135.730469 
	C47.194141,135.730469 47.510139,135.649796 48.275654,135.886490 
	C49.863430,134.619324 51.451206,133.352142 53.403507,131.608231 
	C54.146255,131.322922 54.889008,131.037613 56.213909,130.808990 
	C56.475315,130.543976 56.736721,130.278946 57.229507,129.753555 
	C57.229507,129.753555 57.570892,129.684357 58.389164,129.877472 
	C64.851097,127.909920 71.193428,125.145500 77.801804,124.153641 
	C88.896469,122.488457 100.165024,121.103516 111.351990,121.163780 
	C124.065247,121.232254 136.810654,122.670715 149.462082,124.182976 
	C157.302902,125.120216 165.043274,127.103912 172.740646,128.979370 
	C181.013016,130.994919 182.099380,135.052444 177.054901,141.750046 
	C175.643661,143.623734 175.685242,146.591660 175.000610,148.999390 
	C175.000610,148.999390 175.064377,149.053726 174.344894,149.133942 
	C173.885391,150.406998 173.425888,151.680054 173.003448,152.993576 
	C173.003448,152.993576 172.951080,152.977539 172.343933,153.283615 
	C171.882950,154.503922 171.421967,155.724228 171.004944,156.986267 
	C171.004944,156.986267 170.945419,156.975113 170.503555,157.183731 
	C170.243958,157.394012 170.052628,157.654449 169.344589,158.347565 
	C166.907135,160.692810 164.890686,163.150131 166.926590,167.064407 
	C170.269287,165.872879 173.592407,165.196762 176.389465,163.599472 
	C186.252167,157.967255 195.810791,151.798706 205.713806,146.241806 
	C221.120514,137.596649 236.734604,129.321594 252.192001,120.765381 
	C253.426407,120.082092 254.127777,118.435852 255.505142,116.928986 
	C255.843414,116.837524 256.181702,116.746063 257.062164,116.793068 
	C257.430481,116.428589 257.798767,116.064110 258.595581,115.269638 
	C258.961609,115.100922 259.327637,114.932205 260.336456,114.947845 
	C260.559174,114.950188 260.781891,114.952538 261.433502,115.465050 
	C264.274078,113.639748 267.114685,111.814445 270.255188,109.622368 
	C270.488892,109.407181 270.746033,109.225060 271.476868,108.807991 
	C271.635132,108.508240 271.793396,108.208481 272.207581,107.582237 
	C272.428070,107.387016 272.684906,107.303123 273.259888,107.624077 
	C273.491516,107.376381 273.723175,107.128677 274.157867,106.640106 
	C274.157867,106.640106 274.463867,106.565231 275.081635,106.740349 
	C275.446655,106.534355 275.811707,106.328362 276.878418,106.031563 
	C278.876831,104.821404 280.875214,103.611244 282.873627,102.401085 
	C282.905212,101.911049 282.936798,101.421021 282.968384,100.930992 
	C281.291901,100.305077 279.615417,99.679169 277.428070,99.023964 
	C277.302490,98.908546 277.176880,98.793129 276.818329,98.178986 
	C276.247803,97.767281 275.677307,97.355583 274.723419,96.347900 
	C268.044159,92.707214 261.429443,88.941498 254.671143,85.454018 
	C243.469391,79.673576 232.071655,74.266754 220.947144,68.344421 
	C208.028046,61.466724 195.348160,54.141117 182.494736,47.137897 
	C177.496964,44.414852 172.027481,42.465813 167.316376,39.343983 
	C164.628372,37.562759 162.219193,35.934250 159.958511,38.421257 
	C157.772812,40.825756 159.326904,43.411236 161.362000,45.849960 
	C168.147827,53.981678 174.654861,62.346069 182.021774,71.563507 
	C176.370728,72.530388 172.051987,73.327858 167.713898,74.000702 
	C154.052841,76.119545 140.355286,78.021172 126.732292,80.359062 
	C120.610451,81.409668 114.380913,82.660736 108.638741,84.930275 
	C95.002708,90.319778 81.438713,95.973412 68.207275,102.279205 
	C57.283180,107.485359 47.766861,114.965240 39.656754,124.033737 
	C38.423302,125.412949 37.965836,127.486145 36.905128,129.841690 
	C36.082008,130.850601 35.258888,131.859497 33.882748,132.986496 
	C33.561783,133.616409 33.240818,134.246338 32.974590,134.954834 
z"/>
<path fill="#03D05D" opacity="1.000000" stroke="none" 
	d="
M34.435768,132.868393 
	C35.258888,131.859497 36.082008,130.850601 37.349518,129.441101 
	C49.210445,116.156464 62.877567,106.303368 78.376976,98.922417 
	C106.531235,85.515129 136.508163,79.070023 167.281082,75.685226 
	C172.995331,75.056694 178.720230,74.524895 185.435242,73.848167 
	C177.809570,62.907082 170.804672,52.856663 163.799789,42.806244 
	C164.073639,42.447594 164.347488,42.088940 164.621338,41.730289 
	C167.026688,42.602642 169.567108,43.215721 171.816452,44.387539 
	C193.803833,55.842091 215.712357,67.448082 237.707336,78.887901 
	C249.639145,85.093750 261.694641,91.061813 273.940857,97.343262 
	C275.142029,97.925491 276.096649,98.301598 277.051300,98.677711 
	C277.176880,98.793129 277.302490,98.908546 277.882019,99.348892 
	C281.207977,103.884987 276.456268,104.074997 274.811523,106.092697 
	C274.625031,106.183220 274.463867,106.565231 274.463867,106.565231 
	C274.463867,106.565231 274.157867,106.640106 273.768036,106.777008 
	C273.244843,107.052788 273.111481,107.191673 272.978119,107.330551 
	C272.684906,107.303123 272.428070,107.387016 271.823730,107.719742 
	C271.298615,107.954498 271.157379,108.051758 270.720642,108.194305 
	C269.482452,108.847084 268.539734,109.454582 267.247803,110.204193 
	C264.951202,111.461151 263.003876,112.575981 260.808807,113.666412 
	C260.271912,114.015831 259.982788,114.389664 259.693665,114.763496 
	C259.327637,114.932205 258.961609,115.100922 258.119781,115.418724 
	C257.269318,115.930077 256.894653,116.292343 256.519958,116.654602 
	C256.181702,116.746063 255.843414,116.837524 254.939728,117.099350 
	C253.339432,117.794548 252.287277,118.288147 251.272156,118.848763 
	C225.617722,133.016815 199.974472,147.205170 174.297607,161.332443 
	C172.774170,162.170624 170.986252,162.528137 168.684753,163.331604 
	C169.632507,160.873260 170.187637,159.433365 170.847122,157.749557 
	C170.949463,157.328812 170.947449,157.151962 170.945419,156.975113 
	C170.945419,156.975113 171.004944,156.986267 171.292984,156.807129 
	C172.037704,155.411179 172.494385,154.194351 172.951080,152.977539 
	C172.951080,152.977539 173.003448,152.993576 173.277237,152.818863 
	C174.055481,151.447342 174.559937,150.250534 175.064377,149.053726 
	C175.064377,149.053726 175.000610,148.999390 175.338425,148.880814 
	C178.750504,142.914658 181.824768,137.067093 185.006210,131.015656 
	C183.425735,130.261337 182.589127,129.684952 181.665314,129.446854 
	C153.491730,122.185638 125.013092,117.064682 95.771942,119.343529 
	C82.494560,120.378258 69.408348,122.935684 57.570892,129.684357 
	C57.570892,129.684357 57.229507,129.753555 56.830002,129.874756 
	C56.164249,130.248077 55.898006,130.500198 55.631760,130.752304 
	C54.889008,131.037613 54.146255,131.322922 52.883636,131.873718 
	C50.745888,133.309418 49.128014,134.479599 47.510139,135.649796 
	C47.510139,135.649796 47.194141,135.730469 46.813808,135.868134 
	C46.209919,136.289902 45.986362,136.574020 45.762810,136.858139 
	C45.467556,136.900894 45.219303,137.032394 44.571304,137.519623 
	C41.975185,139.741867 39.825817,141.697098 37.676449,143.652328 
	C37.676445,143.652328 37.943890,143.882446 37.486160,143.884430 
	C33.689953,147.920044 30.351480,151.953674 26.768274,156.162292 
	C26.416443,156.713104 26.309343,157.088959 26.201729,157.611832 
	C26.201214,157.758865 25.999510,157.972855 25.764194,158.101868 
	C25.419905,158.557739 25.310930,158.884567 25.225006,159.203796 
	C25.248056,159.196198 25.242268,159.244385 24.873880,159.130615 
	C23.966896,157.981903 23.428299,156.946976 22.914095,155.927856 
	C22.938488,155.943695 22.885284,155.958405 23.171581,155.755737 
	C23.558582,154.881607 23.659285,154.210144 23.750462,153.392334 
	C23.740936,153.246002 23.925060,153.017746 24.196127,152.852371 
	C24.616613,152.095642 24.766033,151.504288 24.949455,150.946350 
	C24.983458,150.979782 24.890450,150.958755 25.183655,150.793762 
	C26.002626,149.181915 26.528397,147.735062 27.308582,146.028198 
	C28.657860,143.165070 29.752720,140.561951 30.847584,137.958832 
	C30.847584,137.958832 31.122444,137.695053 31.454731,137.389069 
	C32.151855,136.366150 32.516689,135.649200 32.881523,134.932251 
	C32.881523,134.932251 32.974590,134.954834 33.216644,134.847549 
	C33.784386,134.116302 34.110077,133.492355 34.435768,132.868393 
z"/>
<path fill="#C7F8DA" opacity="1.000000" stroke="none" 
	d="
M273.694336,97.137146 
	C261.694641,91.061813 249.639145,85.093750 237.707336,78.887901 
	C215.712357,67.448082 193.803833,55.842091 171.816452,44.387539 
	C169.567108,43.215721 167.026688,42.602642 164.621338,41.730289 
	C164.347488,42.088940 164.073639,42.447594 163.799789,42.806244 
	C170.804672,52.856663 177.809570,62.907082 185.435242,73.848167 
	C178.720230,74.524895 172.995331,75.056694 167.281082,75.685226 
	C136.508163,79.070023 106.531235,85.515129 78.376976,98.922417 
	C62.877567,106.303368 49.210445,116.156464 37.471680,129.139435 
	C37.965836,127.486145 38.423302,125.412949 39.656754,124.033737 
	C47.766861,114.965240 57.283180,107.485359 68.207275,102.279205 
	C81.438713,95.973412 95.002708,90.319778 108.638741,84.930275 
	C114.380913,82.660736 120.610451,81.409668 126.732292,80.359062 
	C140.355286,78.021172 154.052841,76.119545 167.713898,74.000702 
	C172.051987,73.327858 176.370728,72.530388 182.021774,71.563507 
	C174.654861,62.346069 168.147827,53.981678 161.362000,45.849960 
	C159.326904,43.411236 157.772812,40.825756 159.958511,38.421257 
	C162.219193,35.934250 164.628372,37.562759 167.316376,39.343983 
	C172.027481,42.465813 177.496964,44.414852 182.494736,47.137897 
	C195.348160,54.141117 208.028046,61.466724 220.947144,68.344421 
	C232.071655,74.266754 243.469391,79.673576 254.671143,85.454018 
	C261.429443,88.941498 268.044159,92.707214 274.558563,96.671951 
	C274.160614,97.043053 273.927490,97.090096 273.694336,97.137146 
z"/>
<path fill="#C7F9D7" opacity="1.000000" stroke="none" 
	d="
M57.980026,129.780914 
	C69.408348,122.935684 82.494560,120.378258 95.771942,119.343529 
	C125.013092,117.064682 153.491730,122.185638 181.665314,129.446854 
	C182.589127,129.684952 183.425735,130.261337 185.006210,131.015656 
	C181.824768,137.067093 178.750504,142.914658 175.368301,148.909943 
	C175.685242,146.591660 175.643661,143.623734 177.054901,141.750046 
	C182.099380,135.052444 181.013016,130.994919 172.740646,128.979370 
	C165.043274,127.103912 157.302902,125.120216 149.462082,124.182976 
	C136.810654,122.670715 124.065247,121.232254 111.351990,121.163780 
	C100.165024,121.103516 88.896469,122.488457 77.801804,124.153641 
	C71.193428,125.145500 64.851097,127.909920 57.980026,129.780914 
z"/>
<path fill="#C3F5D5" opacity="1.000000" stroke="none" 
	d="
M170.742752,157.993454 
	C170.187637,159.433365 169.632507,160.873260 168.684753,163.331604 
	C170.986252,162.528137 172.774170,162.170624 174.297607,161.332443 
	C199.974472,147.205170 225.617722,133.016815 251.272156,118.848763 
	C252.287277,118.288147 253.339432,117.794548 254.725586,117.253403 
	C254.127777,118.435852 253.426407,120.082092 252.192001,120.765381 
	C236.734604,129.321594 221.120514,137.596649 205.713806,146.241806 
	C195.810791,151.798706 186.252167,157.967255 176.389465,163.599472 
	C173.592407,165.196762 170.269287,165.872879 166.926590,167.064407 
	C164.890686,163.150131 166.907135,160.692810 169.840515,158.166260 
	C170.336456,157.984955 170.742752,157.993454 170.742752,157.993454 
z"/>
<path fill="#D4FAE2" opacity="1.000000" stroke="none" 
	d="
M25.999508,157.972855 
	C25.999510,157.972855 26.201214,157.758865 26.464523,157.446930 
	C26.822891,156.752441 26.917952,156.369888 27.013008,155.987320 
	C30.351480,151.953674 33.689953,147.920044 37.340584,143.784790 
	C38.431789,146.931351 38.119286,149.378159 34.236935,150.616226 
	C32.843918,151.060410 31.814629,153.168640 30.967915,154.709030 
	C27.840639,160.398346 24.859110,166.167801 21.319382,171.724487 
	C19.946795,171.354218 19.077621,171.166565 18.208448,170.978928 
	C19.139402,171.985748 20.070358,172.992569 21.001312,173.999390 
	C20.844976,175.232300 20.688643,176.465225 19.876791,177.849030 
	C18.496925,177.997131 17.772577,177.994324 17.048229,177.991531 
	C16.648941,177.716644 15.869564,177.367737 15.906547,177.177826 
	C16.629030,173.467712 17.446611,169.776108 18.802296,166.039276 
	C19.359854,165.997833 19.803600,166.010910 20.007801,166.296646 
	C21.888758,164.136383 23.565514,161.690384 25.242268,159.244385 
	C25.242268,159.244385 25.248056,159.196198 25.474138,159.092514 
	C25.799982,158.650177 25.899744,158.311508 25.999508,157.972855 
z"/>
<path fill="#25C274" opacity="1.000000" stroke="none" 
	d="
M24.873882,159.130615 
	C23.565514,161.690384 21.888758,164.136383 20.042946,165.956589 
	C19.828957,164.880112 19.784023,164.429413 19.739094,163.978729 
	C20.180395,162.576385 20.621698,161.174042 21.314384,159.203186 
	C22.007078,157.727127 22.448389,156.819580 22.889700,155.912033 
	C23.428299,156.946976 23.966896,157.981903 24.873882,159.130615 
z"/>
<path fill="#C3F5D5" opacity="1.000000" stroke="none" 
	d="
M261.056580,113.690826 
	C263.003876,112.575981 264.951202,111.461151 267.539368,110.192123 
	C268.771881,110.021667 269.363556,110.005409 269.955261,109.989151 
	C267.114685,111.814445 264.274078,113.639748 261.219696,114.999115 
	C261.020355,114.252243 261.037262,113.971466 261.056580,113.690826 
z"/>
<path fill="#CDF8DB" opacity="1.000000" stroke="none" 
	d="
M22.914093,155.927856 
	C22.448389,156.819580 22.007078,157.727127 21.329327,158.830093 
	C18.607374,154.300476 22.062517,151.393799 24.790775,148.501633 
	C25.070337,149.554077 24.980394,150.256424 24.890450,150.958755 
	C24.890450,150.958755 24.983458,150.979782 24.706783,151.133636 
	C24.261761,151.864227 24.093412,152.440994 23.925062,153.017746 
	C23.925060,153.017746 23.740936,153.246002 23.511475,153.631897 
	C23.149771,154.664658 23.017529,155.311523 22.885284,155.958405 
	C22.885284,155.958405 22.938488,155.943695 22.914093,155.927856 
z"/>
<path fill="#BBF1CD" opacity="1.000000" stroke="none" 
	d="
M274.998047,106.002167 
	C276.456268,104.074997 281.207977,103.884987 278.137451,99.363533 
	C279.615417,99.679169 281.291901,100.305077 282.968384,100.930992 
	C282.936798,101.421021 282.905212,101.911049 282.873627,102.401085 
	C280.875214,103.611244 278.876831,104.821404 276.232910,106.041061 
	C275.390961,106.034431 275.194489,106.018303 274.998047,106.002167 
z"/>
<path fill="#D4FAE2" opacity="1.000000" stroke="none" 
	d="
M38.050591,143.734314 
	C39.825817,141.697098 41.975185,139.741867 44.463497,137.704529 
	C42.676537,139.687057 40.550629,141.751678 38.050591,143.734314 
z"/>
<path fill="#CDF8DB" opacity="1.000000" stroke="none" 
	d="
M30.509069,138.008362 
	C29.752720,140.561951 28.657860,143.165070 27.076658,146.011780 
	C26.590317,146.255386 26.127211,146.213837 26.127209,146.213837 
	C27.474993,143.495193 28.822775,140.776550 30.509069,138.008362 
z"/>
<path fill="#C7F9D7" opacity="1.000000" stroke="none" 
	d="
M47.892899,135.768143 
	C49.128014,134.479599 50.745888,133.309418 52.701370,132.112091 
	C51.451206,133.352142 49.863430,134.619324 47.892899,135.768143 
z"/>
<path fill="#D4FAE2" opacity="1.000000" stroke="none" 
	d="
M18.965679,180.993210 
	C18.885283,182.445602 18.804886,183.897995 18.724487,185.350403 
	C18.332577,185.403244 17.940664,185.456085 17.548752,185.508926 
	C17.367901,184.267761 17.187048,183.026611 17.334465,181.391937 
	C18.097050,180.996689 18.531364,180.994949 18.965679,180.993210 
z"/>
<path fill="#CDF8DB" opacity="1.000000" stroke="none" 
	d="
M21.025871,173.691101 
	C20.070358,172.992569 19.139402,171.985748 18.208448,170.978928 
	C19.077621,171.166565 19.946795,171.354218 20.983917,171.847748 
	C21.118052,172.563354 21.084240,172.973099 21.025871,173.691101 
z"/>
<path fill="#CDF8DB" opacity="1.000000" stroke="none" 
	d="
M19.099081,180.701172 
	C18.531364,180.994949 18.097050,180.996689 17.336887,180.998535 
	C17.008423,180.246735 17.005806,179.494812 17.025709,178.367218 
	C17.772577,177.994324 18.496925,177.997131 19.582745,177.995972 
	C19.706968,178.797714 19.469725,179.603424 19.099081,180.701172 
z"/>
<path fill="#C7F9D7" opacity="1.000000" stroke="none" 
	d="
M172.647507,153.130585 
	C172.494385,154.194351 172.037704,155.411179 171.270996,156.786270 
	C171.421967,155.724228 171.882950,154.503922 172.647507,153.130585 
z"/>
<path fill="#C7F9D7" opacity="1.000000" stroke="none" 
	d="
M174.704636,149.093842 
	C174.559937,150.250534 174.055481,151.447342 173.258713,152.798615 
	C173.425888,151.680054 173.885391,150.406998 174.704636,149.093842 
z"/>
<path fill="#25C274" opacity="1.000000" stroke="none" 
	d="
M26.073706,146.420380 
	C26.127211,146.213837 26.590317,146.255386 26.822241,146.271805 
	C26.528397,147.735062 26.002626,149.181915 25.183655,150.793762 
	C24.980394,150.256424 25.070337,149.554077 25.149582,148.496826 
	C25.138885,148.141922 25.106106,148.128250 25.339001,148.015594 
	C25.632980,147.589096 25.694067,147.275238 25.755156,146.961395 
	C25.755156,146.961395 26.020201,146.626938 26.073706,146.420380 
z"/>
<path fill="#BBF1CD" opacity="1.000000" stroke="none" 
	d="
M270.105225,109.805756 
	C269.363556,110.005409 268.771881,110.021667 267.888611,110.050003 
	C268.539734,109.454582 269.482452,108.847084 270.722778,108.426025 
	C271.020386,108.612450 271.026611,109.076012 271.026611,109.076012 
	C270.746033,109.225060 270.488892,109.407181 270.105225,109.805756 
z"/>
<path fill="#BBF1CD" opacity="1.000000" stroke="none" 
	d="
M273.940857,97.343262 
	C273.927490,97.090096 274.160614,97.043053 274.750244,96.969940 
	C275.677307,97.355583 276.247803,97.767281 276.934814,98.428345 
	C276.096649,98.301598 275.142029,97.925491 273.940857,97.343262 
z"/>
<path fill="#C7F8DA" opacity="1.000000" stroke="none" 
	d="
M32.538288,134.983566 
	C32.516689,135.649200 32.151855,136.366150 31.495302,137.202972 
	C31.534073,136.560181 31.864561,135.797531 32.538288,134.983566 
z"/>
<path fill="#C7F8DA" opacity="1.000000" stroke="none" 
	d="
M34.159256,132.927444 
	C34.110077,133.492355 33.784386,134.116302 33.189270,134.808258 
	C33.240818,134.246338 33.561783,133.616409 34.159256,132.927444 
z"/>
<path fill="#BBF1CD" opacity="1.000000" stroke="none" 
	d="
M260.808807,113.666412 
	C261.037262,113.971466 261.020355,114.252243 261.005249,114.744026 
	C260.781891,114.952538 260.559174,114.950188 260.015076,114.855667 
	C259.982788,114.389664 260.271912,114.015831 260.808807,113.666412 
z"/>
<path fill="#C3F5D5" opacity="1.000000" stroke="none" 
	d="
M256.791077,116.723831 
	C256.894653,116.292343 257.269318,115.930077 257.905518,115.633720 
	C257.798767,116.064110 257.430481,116.428589 256.791077,116.723831 
z"/>
<path fill="#CDF8DB" opacity="1.000000" stroke="none" 
	d="
M19.527225,164.165787 
	C19.784023,164.429413 19.828957,164.880112 19.838745,165.670853 
	C19.803600,166.010910 19.359854,165.997833 19.137310,165.985565 
	C19.048298,165.433151 19.181828,164.893005 19.527225,164.165787 
z"/>
<path fill="#CDF8DB" opacity="1.000000" stroke="none" 
	d="
M25.547390,147.086121 
	C25.694067,147.275238 25.632980,147.589096 25.346001,148.011475 
	C25.024467,147.776154 25.097639,147.473099 25.547390,147.086121 
z"/>
<path fill="#C3F5D5" opacity="1.000000" stroke="none" 
	d="
M271.251740,108.942001 
	C271.026611,109.076012 271.020386,108.612450 271.018250,108.380737 
	C271.157379,108.051758 271.298615,107.954498 271.695801,107.882980 
	C271.793396,108.208481 271.635132,108.508240 271.251740,108.942001 
z"/>
<path fill="#C3F5D5" opacity="1.000000" stroke="none" 
	d="
M273.119019,107.477310 
	C273.111481,107.191673 273.244843,107.052788 273.666504,106.897446 
	C273.723175,107.128677 273.491516,107.376381 273.119019,107.477310 
z"/>
<path fill="#C7F9D7" opacity="1.000000" stroke="none" 
	d="
M170.847122,157.749557 
	C170.742752,157.993454 170.336456,157.984955 170.133011,157.975006 
	C170.052628,157.654449 170.243958,157.394012 170.724487,157.079422 
	C170.947449,157.151962 170.949463,157.328812 170.847122,157.749557 
z"/>
<path fill="#C3F5D5" opacity="1.000000" stroke="none" 
	d="
M274.811523,106.092697 
	C275.194489,106.018303 275.390961,106.034431 275.882080,106.086472 
	C275.811707,106.328362 275.446655,106.534355 274.772766,106.652786 
	C274.463867,106.565231 274.625031,106.183220 274.811523,106.092697 
z"/>
<path fill="#C7F9D7" opacity="1.000000" stroke="none" 
	d="
M46.043995,136.847458 
	C45.986362,136.574020 46.209919,136.289902 46.715324,135.998108 
	C46.773174,136.272537 46.549179,136.554657 46.043995,136.847458 
z"/>
<path fill="#C7F9D7" opacity="1.000000" stroke="none" 
	d="
M55.922836,130.780640 
	C55.898006,130.500198 56.164249,130.248077 56.714310,130.004944 
	C56.736721,130.278946 56.475315,130.543976 55.922836,130.780640 
z"/>
<path fill="#25C274" opacity="1.000000" stroke="none" 
	d="
M24.196129,152.852371 
	C24.093412,152.440994 24.261761,151.864227 24.672781,151.100204 
	C24.766033,151.504288 24.616613,152.095642 24.196129,152.852371 
z"/>
<path fill="#25C274" opacity="1.000000" stroke="none" 
	d="
M23.171581,155.755737 
	C23.017529,155.311523 23.149771,154.664658 23.521000,153.778229 
	C23.659285,154.210144 23.558582,154.881607 23.171581,155.755737 
z"/>
<path fill="#25C274" opacity="1.000000" stroke="none" 
	d="
M26.768276,156.162292 
	C26.917952,156.369888 26.822891,156.752441 26.465038,157.299896 
	C26.309343,157.088959 26.416443,156.713104 26.768276,156.162292 
z"/>
<path fill="#25C274" opacity="1.000000" stroke="none" 
	d="
M25.764193,158.101868 
	C25.899744,158.311508 25.799982,158.650177 25.451088,159.100128 
	C25.310930,158.884567 25.419905,158.557739 25.764193,158.101868 
z"/>
</svg>