<?xml version="1.0" encoding="iso-8859-1"?>
<!-- Uploaded to: SVG Repo, www.svgrepo.com, Generator: SVG Repo Mixer Tools -->
<svg fill="#000000" height="800px" width="800px" version="1.1" id="Layer_1" xmlns="http://www.w3.org/2000/svg" xmlns:xlink="http://www.w3.org/1999/xlink" 
	 viewBox="0 0 504.099 504.099" xml:space="preserve">
<g transform="translate(-1)">
	<g>
		<g>
			<path d="M148.831,312.665c-14.353,0-26.034,11.681-26.034,26.034s11.681,26.034,26.034,26.034
				c14.353,0,26.034-11.681,26.034-26.034S163.185,312.665,148.831,312.665z"/>
			<path d="M357.102,312.665c-14.353,0-26.034,11.681-26.034,26.034s11.681,26.034,26.034,26.034
				c14.353,0,26.034-11.681,26.034-26.034S371.456,312.665,357.102,312.665z"/>
			<path d="M501.721,85.215c-9.797-16.618-36.274-15.794-40.587-15.534c-87.075,0.174-160.994,85.114-187.991,120.476
				c-0.998-1.987-2.065-3.836-3.193-5.51c0.061-0.234,0.2-0.434,0.243-0.677c5.589-32.351,25.973-98.668,51.643-96.95
				c4.877,0.417,8.912-3.324,9.216-8.105s-3.324-8.904-8.105-9.216c-43.112-2.768-63.193,78.188-68.521,104.344
				c-0.495-0.052-0.946-0.226-1.458-0.226c-0.503,0-0.955,0.174-1.449,0.217c-5.302-26.173-25.253-107.26-68.53-104.335
				c-4.782,0.312-8.409,4.434-8.105,9.216c0.312,4.782,4.4,8.522,9.216,8.105c24.888-1.631,45.004,58.611,51.643,96.95
				c0.043,0.252,0.182,0.443,0.243,0.677c-1.102,1.64-2.143,3.445-3.124,5.38C205.767,154.561,131.875,69.699,45.303,69.699h-0.026
				c-3.133-0.2-30.824-1.562-40.899,15.516c-6.205,10.518-3.853,24.394,6.986,41.229c0.434,0.677,0.972,1.293,1.579,1.831
				c0.312,0.278,31.753,28.195,31.753,54.22v34.295c-0.338,3.758-1.258,21.452,9.502,33.454
				c6.066,6.769,14.787,10.353,25.209,10.353h14.718c-18.553,14.753-40.752,38.738-40.743,69.033
				c-0.087,1.935-1.822,47.824,27.414,78.423c16.453,17.217,39.172,25.999,67.532,26.103c1.18,0.121,3.836,0.356,7.567,0.356
				c11.984,0,34.964-2.36,54.697-18.111c12.93-10.318,22.094-24.567,27.596-42.375c4.122,4.998,8.973,8.062,14.779,8.062
				c5.866,0,10.761-3.133,14.909-8.227c5.476,17.842,14.631,32.126,27.561,42.47c19.751,15.811,42.782,18.18,54.784,18.18
				c3.714,0,6.378-0.234,7.55-0.356c28.36-0.104,51.079-8.886,67.541-26.103c29.236-30.599,27.5-76.488,27.422-78.032
				c0-30.546-22.233-54.636-40.786-69.424H426.7c10.422,0,19.135-3.584,25.209-10.353c10.761-12.002,9.832-29.696,9.502-33.454
				v-34.295c0-26.025,31.432-53.942,31.753-54.22c0.607-0.538,1.137-1.154,1.571-1.831
				C505.574,109.609,507.926,95.733,501.721,85.215z M88.086,156.461c-4.79,0-8.678-3.888-8.678-8.678
				c0-4.79,3.888-8.678,8.678-8.678c38.279,0,69.424,31.145,69.424,69.424c0,4.79-3.888,8.678-8.678,8.678
				c-4.79,0-8.678-3.888-8.678-8.678C140.153,179.814,116.801,156.461,88.086,156.461z M148.831,382.088
				c-23.925,0-43.39-19.465-43.39-43.39s19.465-43.39,43.39-43.39c23.925,0,43.39,19.465,43.39,43.39
				S172.756,382.088,148.831,382.088z M270.193,287.36c-0.043,1.77-0.139,3.497-0.208,5.242c-0.052,1.276-0.087,2.586-0.156,3.827
				c-0.122,2.126-0.278,4.209-0.434,6.292c-0.061,0.807-0.104,1.666-0.165,2.465c-0.234,2.812-0.512,5.563-0.816,8.27
				c-0.061,0.573-0.139,1.093-0.208,1.657c-0.26,2.161-0.521,4.304-0.824,6.378c-0.061,0.408-0.13,0.781-0.182,1.18
				c-1.154,7.602-2.595,14.657-4.322,20.914c-0.052,0.191-0.009,0.391-0.052,0.59c-3.324,12.331-7.029,19.517-9.494,20.61
				c-2.82-1.102-6.751-8.426-10.197-20.966c-0.486-1.736-0.929-3.558-1.371-5.406c-0.217-0.92-0.425-1.848-0.642-2.812
				c-0.217-1.007-0.425-2.048-0.633-3.089c-0.278-1.388-0.555-2.777-0.816-4.244c-0.113-0.607-0.208-1.241-0.312-1.857
				c-0.304-1.788-0.599-3.593-0.876-5.502c-0.026-0.217-0.052-0.451-0.087-0.668c-0.876-6.222-1.571-13.078-2.057-20.445
				c-0.069-1.085-0.165-2.135-0.226-3.228c-0.078-1.362-0.113-2.812-0.174-4.209c-0.069-1.649-0.156-3.28-0.2-4.955
				c-0.087-3.072-0.13-6.222-0.13-9.45c0-52.441,11.542-84.411,16.991-86.832c5.91,2.317,16.696,31.701,17.625,80.124v0.043
				l0.009,0.295c0.035,2.1,0.087,4.191,0.087,6.37C270.323,281.163,270.279,284.305,270.193,287.36z M357.102,382.088
				c-23.925,0-43.39-19.465-43.39-43.39s19.465-43.39,43.39-43.39c23.925,0,43.39,19.465,43.39,43.39
				S381.028,382.088,357.102,382.088z M417.848,156.461c-28.715,0-52.068,23.352-52.068,52.068c0,4.79-3.888,8.678-8.678,8.678
				s-8.678-3.888-8.678-8.678c0-38.279,31.145-69.424,69.424-69.424c4.79,0,8.678,3.888,8.678,8.678
				C426.526,152.573,422.638,156.461,417.848,156.461z"/>
		</g>
	</g>
</g>
</svg>