<svg version="1.1" id="Layer_1" xmlns="http://www.w3.org/2000/svg" xmlns:xlink="http://www.w3.org/1999/xlink" x="0px" y="0px"
	 width="100%" viewBox="0 0 600 525" enable-background="new 0 0 600 525" xml:space="preserve">
<path fill="#FFFFFF" opacity="1.000000" stroke="none" 
	d="
M375.000000,526.000000 
	C250.027649,526.000000 125.555283,526.000000 1.041464,526.000000 
	C1.041464,351.066498 1.041464,176.132996 1.041464,1.099746 
	C200.889053,1.099746 400.778168,1.099746 600.833618,1.099746 
	C600.833618,175.999878 600.833618,350.999908 600.833618,526.000000 
	C525.799622,526.000000 450.649811,526.000000 375.000000,526.000000 
M205.207993,266.109680 
	C205.221939,262.404633 205.235886,258.699585 206.153656,254.916855 
	C237.770813,254.939606 269.387970,254.962357 301.001312,255.908630 
	C301.060333,259.592224 301.119354,263.275848 301.020233,267.889923 
	C301.013580,335.838379 301.006744,403.786835 301.002411,471.735291 
	C301.002350,472.734192 300.948425,473.743195 301.065125,474.730286 
	C301.670837,479.853210 305.885742,483.410645 311.053558,483.212219 
	C316.976837,482.984802 320.167816,478.866150 320.168732,471.332489 
	C320.176727,404.549744 320.174683,337.766998 320.165863,270.984253 
	C320.165710,269.656799 320.047516,268.329376 320.164886,266.095154 
	C320.175629,262.394104 320.186371,258.693054 321.107605,254.915253 
	C335.413391,254.880341 349.721130,254.960587 364.023254,254.712860 
	C366.866241,254.663620 369.976807,253.894501 372.473236,252.547684 
	C393.685059,241.104034 414.791382,229.464523 435.894745,217.821060 
	C437.112396,217.149231 438.029114,215.931900 438.668945,214.416809 
	C416.228577,202.055237 393.807770,189.657776 371.310394,177.400833 
	C369.526581,176.428986 367.215302,176.060349 365.143280,176.040863 
	C350.160156,175.899857 335.175537,175.920959 320.175781,174.974396 
	C320.107117,167.645355 320.038452,160.316330 320.158875,152.084244 
	C320.167542,148.374695 320.176178,144.665131 321.093872,140.840210 
	C335.226044,140.803101 349.361084,140.907455 363.488159,140.619980 
	C366.645630,140.555725 370.093384,139.708389 372.866852,138.216553 
	C393.789581,126.962288 414.585785,115.472290 435.388245,103.995659 
	C436.777802,103.229034 437.895233,101.969170 438.732391,100.376839 
	C416.575287,88.167694 394.441284,75.916031 372.222992,63.819340 
	C370.145325,62.688179 367.540558,62.039463 365.170258,62.010666 
	C350.181305,61.828602 335.189484,61.884586 320.185699,60.964657 
	C320.177795,58.304352 320.281250,55.638062 320.138580,52.985004 
	C319.851990,47.654350 316.034088,43.917587 310.903839,43.781559 
	C305.538605,43.639305 301.380890,47.392384 301.047363,52.885704 
	C300.866272,55.868168 300.996002,58.869503 300.050873,61.897633 
	C268.456116,61.884422 236.861328,61.871212 205.242126,60.960827 
	C205.231476,58.299168 205.333160,55.631306 205.186600,52.977150 
	C204.889603,47.598324 201.106613,43.872940 195.972275,43.735760 
	C190.676849,43.594276 186.445679,47.419724 186.095016,52.881599 
	C185.903519,55.864471 186.036728,58.868198 185.084457,61.906521 
	C177.398422,61.906521 169.712387,61.906521 161.909805,61.906521 
	C161.909805,75.529167 161.909805,88.248154 161.572556,101.706398 
	C161.514664,113.479874 161.506531,125.253960 161.362289,137.026382 
	C161.328156,139.811157 162.337402,140.812088 165.145142,140.778900 
	C172.105362,140.696625 179.068604,140.871918 186.033600,141.875824 
	C186.097229,145.565491 186.160858,149.255157 186.072983,153.877869 
	C186.060852,161.219894 186.048721,168.561920 185.096024,175.954605 
	C177.488892,175.954605 169.881775,175.954605 161.910751,175.954605 
	C161.910751,189.408142 161.910751,202.188828 161.569748,215.706650 
	C161.569748,228.597137 161.569748,241.487610 161.569748,254.986694 
	C170.147751,254.986694 178.090790,254.986694 186.037384,255.909668 
	C186.095718,259.590149 186.154037,263.270599 186.064957,267.883942 
	C186.057144,335.836578 186.049118,403.789215 186.043716,471.741852 
	C186.043640,472.740814 185.985184,473.751221 186.109024,474.736816 
	C186.751617,479.851074 190.995102,483.423157 196.123978,483.222321 
	C201.070862,483.028595 204.758804,479.426483 205.179230,474.336548 
	C205.261276,473.343262 205.223755,472.339233 205.223785,471.340179 
	C205.226242,404.886475 205.228210,338.432770 205.218460,271.979065 
	C205.218262,270.652985 205.079254,269.326904 205.143799,267.506958 
	C205.097427,267.342377 205.051041,267.177826 205.207993,266.109680 
z"/>
<path fill="#C6C64D" opacity="1.000000" stroke="none" 
	d="
M439.085907,214.968460 
	C438.029114,215.931900 437.112396,217.149231 435.894745,217.821060 
	C414.791382,229.464523 393.685059,241.104034 372.473236,252.547684 
	C369.976807,253.894501 366.866241,254.663620 364.023254,254.712860 
	C349.721130,254.960587 335.413391,254.880341 320.177979,254.864136 
	C313.167267,254.870361 307.086212,254.927734 301.005127,254.985107 
	C269.387970,254.962357 237.770813,254.939606 205.225052,254.858459 
	C198.208908,254.862289 192.121353,254.924484 186.033813,254.986694 
	C178.090790,254.986694 170.147751,254.986694 161.569748,254.986694 
	C161.569748,241.487610 161.569748,228.597137 162.215851,215.349503 
	C254.936615,214.984390 347.011261,214.976425 439.085907,214.968460 
z"/>
<path fill="#C6C64D" opacity="1.000000" stroke="none" 
	d="
M186.030640,140.943756 
	C179.068604,140.871918 172.105362,140.696625 165.145142,140.778900 
	C162.337402,140.812088 161.328156,139.811157 161.362289,137.026382 
	C161.506531,125.253960 161.514664,113.479874 162.216858,101.347031 
	C254.953857,100.971344 347.046539,100.955032 439.139221,100.938721 
	C437.895233,101.969170 436.777802,103.229034 435.388245,103.995659 
	C414.585785,115.472290 393.789581,126.962288 372.866852,138.216553 
	C370.093384,139.708389 366.645630,140.555725 363.488159,140.619980 
	C349.361084,140.907455 335.226044,140.803101 320.168304,140.793777 
	C313.161560,140.811157 307.080383,140.874969 300.637085,140.758057 
	C268.603973,140.507477 236.932968,140.437637 204.778442,140.361694 
	C198.206833,140.551636 192.118729,140.747696 186.030640,140.943756 
z"/>
<path fill="#DEE25A" opacity="1.000000" stroke="none" 
	d="
M438.935791,100.657776 
	C347.046539,100.955032 254.953857,100.971344 162.385498,100.977402 
	C161.909805,88.248154 161.909805,75.529167 161.909805,61.906521 
	C169.712387,61.906521 177.398422,61.906521 186.019379,61.911667 
	C193.058395,61.897209 199.162476,61.877605 205.266556,61.858002 
	C236.861328,61.871212 268.456116,61.884422 300.986450,61.905449 
	C308.014252,61.896175 314.106415,61.879089 320.198608,61.862007 
	C335.189484,61.884586 350.181305,61.828602 365.170258,62.010666 
	C367.540558,62.039463 370.145325,62.688179 372.222992,63.819340 
	C394.441284,75.916031 416.575287,88.167694 438.935791,100.657776 
z"/>
<path fill="#DEE25A" opacity="1.000000" stroke="none" 
	d="
M438.877441,214.692627 
	C347.011261,214.976425 254.936615,214.984390 162.386353,214.980927 
	C161.910751,202.188828 161.910751,189.408142 161.910751,175.954605 
	C169.881775,175.954605 177.488892,175.954605 186.031281,175.953873 
	C193.058594,175.931335 199.150620,175.909531 205.693680,175.909409 
	C237.760666,175.919281 269.376648,175.907486 301.460876,175.918945 
	C308.016571,175.925034 314.103973,175.907883 320.191376,175.890717 
	C335.175537,175.920959 350.160156,175.899857 365.143280,176.040863 
	C367.215302,176.060349 369.526581,176.428986 371.310394,177.400833 
	C393.807770,189.657776 416.228577,202.055237 438.877441,214.692627 
z"/>
<path fill="#807E33" opacity="1.000000" stroke="none" 
	d="
M205.005020,268.000824 
	C205.079254,269.326904 205.218262,270.652985 205.218460,271.979065 
	C205.228210,338.432770 205.226242,404.886475 205.223785,471.340179 
	C205.223755,472.339233 205.261276,473.343262 205.179230,474.336548 
	C204.758804,479.426483 201.070862,483.028595 196.123978,483.222321 
	C190.995102,483.423157 186.751617,479.851074 186.109024,474.736816 
	C185.985184,473.751221 186.043640,472.740814 186.043716,471.741852 
	C186.049118,403.789215 186.057144,335.836578 186.592453,267.432983 
	C192.749863,267.037903 198.379791,267.093750 204.128464,267.340210 
	C204.453674,267.761841 204.706268,267.918518 205.005020,268.000824 
z"/>
<path fill="#7F7D32" opacity="1.000000" stroke="none" 
	d="
M319.984375,267.001892 
	C320.047516,268.329376 320.165710,269.656799 320.165863,270.984253 
	C320.174683,337.766998 320.176727,404.549744 320.168732,471.332489 
	C320.167816,478.866150 316.976837,482.984802 311.053558,483.212219 
	C305.885742,483.410645 301.670837,479.853210 301.065125,474.730286 
	C300.948425,473.743195 301.002350,472.734192 301.002411,471.735291 
	C301.006744,403.786835 301.013580,335.838379 301.555664,267.436096 
	C308.055511,266.988800 314.019958,266.995361 319.984375,267.001892 
z"/>
<path fill="#7F7D32" opacity="1.000000" stroke="none" 
	d="
M320.183594,175.432556 
	C314.103973,175.907883 308.016571,175.925034 301.464478,175.461273 
	C301.064148,167.637436 301.128571,160.294540 301.649078,152.957886 
	C308.060059,152.971848 314.014954,152.979584 319.969818,152.987305 
	C320.038452,160.316330 320.107117,167.645355 320.183594,175.432556 
z"/>
<path fill="#7F7D32" opacity="1.000000" stroke="none" 
	d="
M205.242661,175.887741 
	C199.150620,175.909531 193.058594,175.931335 186.501587,175.928543 
	C186.048721,168.561920 186.060852,161.219894 186.602234,153.419098 
	C193.088440,152.973618 199.045380,152.986908 205.094086,153.461319 
	C205.204773,161.244202 205.223709,168.565964 205.242661,175.887741 
z"/>
<path fill="#807E33" opacity="1.000000" stroke="none" 
	d="
M205.254333,61.409416 
	C199.162476,61.877605 193.058395,61.897209 186.488907,61.889664 
	C186.036728,58.868198 185.903519,55.864471 186.095016,52.881599 
	C186.445679,47.419724 190.676849,43.594276 195.972275,43.735760 
	C201.106613,43.872940 204.889603,47.598324 205.186600,52.977150 
	C205.333160,55.631306 205.231476,58.299168 205.254333,61.409416 
z"/>
<path fill="#807E33" opacity="1.000000" stroke="none" 
	d="
M320.192139,61.413330 
	C314.106415,61.879089 308.014252,61.896175 301.453796,61.887794 
	C300.996002,58.869503 300.866272,55.868168 301.047363,52.885704 
	C301.380890,47.392384 305.538605,43.639305 310.903839,43.781559 
	C316.034088,43.917587 319.851990,47.654350 320.138580,52.985004 
	C320.281250,55.638062 320.177795,58.304352 320.192139,61.413330 
z"/>
<path fill="#44421C" opacity="1.000000" stroke="none" 
	d="
M205.002335,153.000214 
	C199.045380,152.986908 193.088440,152.973618 186.677979,152.952576 
	C186.160858,149.255157 186.097229,145.565491 186.032120,141.409790 
	C192.118729,140.747696 198.206833,140.551636 204.769897,140.786331 
	C205.164017,145.144791 205.083176,149.072510 205.002335,153.000214 
z"/>
<path fill="#44421C" opacity="1.000000" stroke="none" 
	d="
M320.064331,152.535767 
	C314.014954,152.979584 308.060059,152.971848 301.567749,152.506226 
	C301.019928,148.345154 301.009583,144.641968 300.999207,140.938782 
	C307.080383,140.874969 313.161560,140.811157 319.713806,140.851471 
	C320.176178,144.665131 320.167542,148.374695 320.064331,152.535767 
z"/>
<path fill="#44421C" opacity="1.000000" stroke="none" 
	d="
M204.009705,267.149597 
	C198.379791,267.093750 192.749863,267.037903 186.666153,266.966553 
	C186.154037,263.270599 186.095718,259.590149 186.035599,255.448181 
	C192.121353,254.924484 198.208908,254.862289 204.773132,254.897308 
	C205.235886,258.699585 205.221939,262.404633 204.856445,266.587097 
	C204.339828,267.092926 204.174759,267.121277 204.009705,267.149597 
z"/>
<path fill="#44421C" opacity="1.000000" stroke="none" 
	d="
M320.074646,266.548523 
	C314.019958,266.995361 308.055511,266.988800 301.634735,266.970825 
	C301.119354,263.275848 301.060333,259.592224 301.003235,255.446869 
	C307.086212,254.927734 313.167267,254.870361 319.722748,254.902496 
	C320.186371,258.693054 320.175629,262.394104 320.074646,266.548523 
z"/>
<path fill="#787727" opacity="1.000000" stroke="none" 
	d="
M204.128464,267.340210 
	C204.174759,267.121277 204.339828,267.092926 204.754776,267.038879 
	C205.051041,267.177826 205.097427,267.342377 205.074402,267.753906 
	C204.706268,267.918518 204.453674,267.761841 204.128464,267.340210 
z"/>
<path fill="#FEFEFE" opacity="1.000000" stroke="none" 
	d="
M300.637085,140.758057 
	C301.009583,144.641968 301.019928,148.345154 301.111633,152.499985 
	C301.128571,160.294540 301.064148,167.637436 300.996185,175.438019 
	C269.376648,175.907486 237.760666,175.919281 205.693680,175.909409 
	C205.223709,168.565964 205.204773,161.244202 205.094086,153.461319 
	C205.083176,149.072510 205.164017,145.144791 205.253418,140.792450 
	C236.932968,140.437637 268.603973,140.507477 300.637085,140.758057 
z"/>
</svg>