<svg version="1.1" id="Layer_1" xmlns="http://www.w3.org/2000/svg" xmlns:xlink="http://www.w3.org/1999/xlink" x="0px" y="0px"
	 width="100%" viewBox="0 0 237 404" enable-background="new 0 0 237 404" xml:space="preserve">
<path fill="#000000" opacity="1.000000" stroke="none" 
	d="
M1.000000,125.000000 
	C1.000000,83.349388 1.000000,42.198780 1.000000,1.024086 
	C79.953125,1.024086 158.906250,1.024086 237.929688,1.024086 
	C237.929688,135.567245 237.929688,270.134521 237.929688,404.850891 
	C159.000183,404.850891 80.000137,404.850891 1.000000,404.850891 
	C1.000000,311.760559 1.000000,218.630280 1.000000,125.000000 
M102.001335,193.829529 
	C107.301544,193.918182 112.601746,194.006836 117.616455,194.723389 
	C111.079239,198.149109 104.370125,201.289230 98.057755,205.088516 
	C92.756882,208.279022 87.918358,212.237671 82.188568,215.953003 
	C79.621422,218.279175 77.076195,220.630096 74.482880,222.926743 
	C67.626839,228.998413 64.182808,236.307144 64.892517,245.738876 
	C65.440750,253.024551 65.041306,260.385315 64.981606,267.712036 
	C64.903740,277.267487 68.453384,285.338837 74.758675,292.360596 
	C80.762207,299.046265 86.413452,306.204407 87.455986,315.351074 
	C88.597450,325.365784 88.592873,335.515289 88.980415,345.610138 
	C89.184410,350.923615 88.244980,356.453125 89.395378,361.528442 
	C94.504951,384.070648 113.053352,397.040375 137.678299,393.934082 
	C161.415985,390.939667 178.313477,376.637665 192.913116,359.157562 
	C203.077728,346.987488 209.755692,332.729553 214.119202,317.599365 
	C220.120087,296.791748 225.540146,275.811279 230.869125,254.818588 
	C232.377304,248.877365 232.904037,242.654877 233.494553,236.524170 
	C233.887360,232.445999 233.698654,228.298874 233.581818,224.187973 
	C233.447418,219.459122 233.105286,214.736191 232.830368,209.072083 
	C234.758713,187.703812 230.938446,167.345062 222.008926,147.109756 
	C221.329041,145.122986 220.734024,143.102356 219.956512,141.154556 
	C208.680374,112.906540 193.946671,86.703522 173.469742,64.036736 
	C161.161743,50.412487 146.916351,39.005871 130.897873,30.035879 
	C102.363869,14.057473 71.582726,8.043342 38.172363,10.061556 
	C34.853638,10.132269 31.371925,9.576082 28.246103,10.388763 
	C18.005165,13.051295 10.990028,19.864231 9.235497,30.142368 
	C7.322067,41.351357 9.749414,51.716293 19.882278,59.118259 
	C26.443991,63.911533 34.486183,67.792686 37.226673,76.050758 
	C39.404194,82.612404 40.338120,89.724655 40.839558,96.663605 
	C41.289036,102.883492 43.430206,107.988029 47.152069,112.774559 
	C50.935482,117.640274 55.672428,122.148422 55.954712,128.838669 
	C56.451096,140.603317 57.060619,152.385696 56.885342,164.149673 
	C56.718540,175.344971 65.783913,188.554718 77.031296,192.262405 
	C85.097168,194.921326 93.052689,193.618927 102.001335,193.829529 
z"/>
<path fill="#795799" opacity="1.000000" stroke="none" 
	d="
M82.875137,215.856247 
	C87.918358,212.237671 92.756882,208.279022 98.057755,205.088516 
	C104.370125,201.289230 111.079239,198.149109 118.151283,194.371338 
	C126.210083,190.568161 133.734055,187.117050 141.651794,183.736420 
	C143.342819,184.093506 144.634949,184.406082 145.938095,184.662674 
	C157.480194,186.935287 168.753677,187.311783 178.972229,180.047852 
	C188.526398,173.256165 195.696991,164.480682 200.804535,153.629578 
	C200.688858,152.857452 200.566589,152.423477 200.860809,151.872330 
	C208.212402,150.460327 215.147461,149.165482 222.082535,147.870651 
	C230.938446,167.345062 234.758713,187.703812 232.612061,209.828583 
	C231.904968,212.502899 231.262207,214.396118 230.951065,216.342331 
	C227.491302,237.982193 222.596176,259.203186 212.587601,278.908691 
	C208.040085,287.862152 202.089584,295.361237 192.394653,299.476868 
	C179.691422,304.869507 172.161438,314.622894 169.086151,328.142487 
	C167.615265,334.608856 165.623779,341.059296 162.992233,347.137726 
	C157.618530,359.550110 149.493988,363.699646 136.163895,361.701508 
	C134.681900,361.479340 133.205460,361.195526 131.744537,360.861145 
	C121.317932,358.474915 114.927605,351.306396 114.125328,340.585205 
	C113.541924,332.788910 112.941727,324.946350 113.163353,317.147552 
	C113.576897,302.595764 108.852455,290.966370 96.743973,282.203094 
	C87.467041,275.489075 85.129448,266.203522 88.344460,255.186111 
	C89.927658,249.760712 91.339333,244.267258 92.463776,238.730484 
	C93.896416,231.676178 91.504890,225.608871 86.846489,220.322876 
	C85.529297,218.828201 84.199272,217.344818 82.875137,215.856247 
M166.700928,218.549973 
	C157.857574,220.724518 149.113083,223.533737 140.148544,224.930359 
	C125.321152,227.240387 121.008728,241.358810 120.997360,253.402206 
	C120.992142,258.925781 126.152443,264.806549 131.085129,265.766174 
	C136.730774,266.864532 141.614059,264.547546 144.421356,259.906525 
	C152.564346,246.444534 160.197250,232.674011 168.372757,218.840179 
	C168.070358,218.689743 167.767960,218.539322 166.700928,218.549973 
M153.001511,318.494232 
	C153.001511,306.665497 153.001511,294.836731 153.001511,282.660645 
	C132.432022,290.010132 120.235382,308.643707 121.011581,330.330139 
	C121.322662,339.021484 128.091202,345.797119 136.640182,345.975037 
	C145.290421,346.155090 152.569489,339.297485 152.953278,330.465790 
	C153.111969,326.813721 152.993774,323.149597 153.001511,318.494232 
M174.600113,283.799072 
	C182.149475,292.530029 193.398682,292.136719 198.497955,282.410675 
	C200.365540,278.848511 201.054764,274.035065 200.570984,269.997375 
	C199.327789,259.621582 197.126617,249.360580 195.309067,239.053574 
	C194.643341,235.278290 193.979660,231.502625 193.315048,227.727142 
	C192.772751,227.645859 192.230469,227.564590 191.688171,227.483307 
	C184.502045,238.792496 176.932327,249.886459 170.385590,261.554382 
	C168.635803,264.672974 169.446350,269.643463 170.127258,273.583038 
	C170.703339,276.916199 172.791016,279.988068 174.600113,283.799072 
z"/>
<path fill="#9D71C7" opacity="1.000000" stroke="none" 
	d="
M222.045731,147.490204 
	C215.147461,149.165482 208.212402,150.460327 200.688354,151.594254 
	C192.516388,132.550720 183.389221,114.465775 171.734283,97.753937 
	C161.956284,83.733398 150.973007,70.822884 135.371109,62.903923 
	C131.084091,60.727989 126.349579,59.433662 121.711281,57.693859 
	C121.263687,59.270245 121.038788,59.738716 121.012108,60.218220 
	C120.938263,61.545364 120.817566,62.889389 120.942238,64.205246 
	C123.771965,94.070717 138.139648,117.977272 159.849121,137.728104 
	C169.906998,146.878525 182.678421,151.029205 195.357193,153.878555 
	C181.581985,153.924301 168.250534,153.693192 154.938049,154.093307 
	C143.050461,154.450592 131.784836,156.918716 123.444817,166.611496 
	C121.258141,169.152863 120.956947,171.470459 123.813629,173.281952 
	C129.526215,176.904465 135.432007,180.222305 141.258011,183.665939 
	C133.734055,187.117050 126.210083,190.568161 118.294037,194.057373 
	C112.601746,194.006836 107.301544,193.918182 101.326508,193.507019 
	C97.667671,192.229340 94.683586,191.274368 91.699638,190.318985 
	C73.815140,184.592896 68.199211,172.683533 74.772644,155.194275 
	C76.388222,150.895874 77.582275,146.231308 77.840141,141.671173 
	C78.488884,130.199310 74.036186,120.691338 65.597588,112.842369 
	C55.998646,103.914154 48.023540,94.017441 49.100826,79.721893 
	C49.712807,71.600922 46.695690,64.705757 41.876041,58.499031 
	C39.334106,55.225536 36.456478,52.204628 33.636620,49.156445 
	C22.245615,36.843117 23.608337,22.271372 37.078476,12.422569 
	C37.854866,11.854905 38.416557,10.993605 39.078163,10.268959 
	C71.582726,8.043342 102.363869,14.057473 130.897873,30.035879 
	C146.916351,39.005871 161.161743,50.412487 173.469742,64.036736 
	C193.946671,86.703522 208.680374,112.906540 219.956512,141.154556 
	C220.734024,143.102356 221.329041,145.122986 222.045731,147.490204 
M68.908455,66.585083 
	C78.477577,76.482697 90.036400,81.705688 104.648415,82.013229 
	C103.736275,79.985657 103.296547,78.575546 102.530083,77.373825 
	C97.072495,68.817032 91.985901,59.973049 85.895294,51.887852 
	C81.646095,46.247105 76.227890,41.394966 70.873940,36.714367 
	C67.858116,34.077839 63.685413,32.428993 59.818390,35.180782 
	C55.967770,37.920902 55.984310,42.613403 57.545799,46.136169 
	C60.602497,53.032204 64.728691,59.454178 68.908455,66.585083 
M104.532959,130.002914 
	C112.225586,130.002914 119.918205,130.002914 127.610832,130.002914 
	C127.805565,129.533905 128.000290,129.064880 128.195023,128.595871 
	C121.129158,119.664619 114.485405,110.350258 106.849144,101.936722 
	C101.751732,96.320442 92.619659,96.655258 86.727585,101.231903 
	C80.935234,105.731064 79.537270,113.408295 82.952309,120.572838 
	C87.223434,129.533386 94.987839,130.566254 104.532959,130.002914 
z"/>
<path fill="#573876" opacity="1.000000" stroke="none" 
	d="
M82.531845,215.904633 
	C84.199272,217.344818 85.529297,218.828201 86.846489,220.322876 
	C91.504890,225.608871 93.896416,231.676178 92.463776,238.730484 
	C91.339333,244.267258 89.927658,249.760712 88.344460,255.186111 
	C85.129448,266.203522 87.467041,275.489075 96.743973,282.203094 
	C108.852455,290.966370 113.576897,302.595764 113.163353,317.147552 
	C112.941727,324.946350 113.541924,332.788910 114.125328,340.585205 
	C114.927605,351.306396 121.317932,358.474915 131.744537,360.861145 
	C133.205460,361.195526 134.681900,361.479340 136.163895,361.701508 
	C149.493988,363.699646 157.618530,359.550110 162.992233,347.137726 
	C165.623779,341.059296 167.615265,334.608856 169.086151,328.142487 
	C172.161438,314.622894 179.691422,304.869507 192.394653,299.476868 
	C202.089584,295.361237 208.040085,287.862152 212.587601,278.908691 
	C222.596176,259.203186 227.491302,237.982193 230.951065,216.342331 
	C231.262207,214.396118 231.904968,212.502899 232.623566,210.297882 
	C233.105286,214.736191 233.447418,219.459122 233.581818,224.187973 
	C233.698654,228.298874 233.887360,232.445999 233.494553,236.524170 
	C232.904037,242.654877 232.377304,248.877365 230.869125,254.818588 
	C225.540146,275.811279 220.120087,296.791748 214.119202,317.599365 
	C209.755692,332.729553 203.077728,346.987488 192.913116,359.157562 
	C178.313477,376.637665 161.415985,390.939667 137.678299,393.934082 
	C113.053352,397.040375 94.504951,384.070648 89.395378,361.528442 
	C88.244980,356.453125 89.184410,350.923615 88.980415,345.610138 
	C88.592873,335.515289 88.597450,325.365784 87.455986,315.351074 
	C86.413452,306.204407 80.762207,299.046265 74.758675,292.360596 
	C68.453384,285.338837 64.903740,277.267487 64.981606,267.712036 
	C65.041306,260.385315 65.440750,253.024551 64.892517,245.738876 
	C64.182808,236.307144 67.626839,228.998413 74.482880,222.926743 
	C77.076195,220.630096 79.621422,218.279175 82.531845,215.904633 
z"/>
<path fill="#7A589A" opacity="1.000000" stroke="none" 
	d="
M38.625263,10.165258 
	C38.416557,10.993605 37.854866,11.854905 37.078476,12.422569 
	C23.608337,22.271372 22.245615,36.843117 33.636620,49.156445 
	C36.456478,52.204628 39.334106,55.225536 41.876041,58.499031 
	C46.695690,64.705757 49.712807,71.600922 49.100826,79.721893 
	C48.023540,94.017441 55.998646,103.914154 65.597588,112.842369 
	C74.036186,120.691338 78.488884,130.199310 77.840141,141.671173 
	C77.582275,146.231308 76.388222,150.895874 74.772644,155.194275 
	C68.199211,172.683533 73.815140,184.592896 91.699638,190.318985 
	C94.683586,191.274368 97.667671,192.229340 100.866486,193.458099 
	C93.052689,193.618927 85.097168,194.921326 77.031296,192.262405 
	C65.783913,188.554718 56.718540,175.344971 56.885342,164.149673 
	C57.060619,152.385696 56.451096,140.603317 55.954712,128.838669 
	C55.672428,122.148422 50.935482,117.640274 47.152069,112.774559 
	C43.430206,107.988029 41.289036,102.883492 40.839558,96.663605 
	C40.338120,89.724655 39.404194,82.612404 37.226673,76.050758 
	C34.486183,67.792686 26.443991,63.911533 19.882278,59.118259 
	C9.749414,51.716293 7.322067,41.351357 9.235497,30.142368 
	C10.990028,19.864231 18.005165,13.051295 28.246103,10.388763 
	C31.371925,9.576082 34.853638,10.132269 38.625263,10.165258 
z"/>
<path fill="#FED0D1" opacity="1.000000" stroke="none" 
	d="
M195.809204,153.876373 
	C182.678421,151.029205 169.906998,146.878525 159.849121,137.728104 
	C138.139648,117.977272 123.771965,94.070717 120.942238,64.205246 
	C120.817566,62.889389 120.938263,61.545364 121.012108,60.218220 
	C121.038788,59.738716 121.263687,59.270245 121.711281,57.693859 
	C126.349579,59.433662 131.084091,60.727989 135.371109,62.903923 
	C150.973007,70.822884 161.956284,83.733398 171.734283,97.753937 
	C183.389221,114.465775 192.516388,132.550720 200.271835,151.711426 
	C200.566589,152.423477 200.688858,152.857452 200.392120,153.624985 
	C198.585129,153.931152 197.197174,153.903763 195.809204,153.876373 
z"/>
<path fill="#DF9696" opacity="1.000000" stroke="none" 
	d="
M195.357193,153.878555 
	C197.197174,153.903763 198.585129,153.931152 200.385529,153.963135 
	C195.696991,164.480682 188.526398,173.256165 178.972229,180.047852 
	C168.753677,187.311783 157.480194,186.935287 145.938095,184.662674 
	C144.634949,184.406082 143.342819,184.093506 141.651794,183.736420 
	C135.432007,180.222305 129.526215,176.904465 123.813629,173.281952 
	C120.956947,171.470459 121.258141,169.152863 123.444817,166.611496 
	C131.784836,156.918716 143.050461,154.450592 154.938049,154.093307 
	C168.250534,153.693192 181.581985,153.924301 195.357193,153.878555 
z"/>
<path fill="#DF9696" opacity="1.000000" stroke="none" 
	d="
M153.001495,318.992615 
	C152.993774,323.149597 153.111969,326.813721 152.953278,330.465790 
	C152.569489,339.297485 145.290421,346.155090 136.640182,345.975037 
	C128.091202,345.797119 121.322662,339.021484 121.011581,330.330139 
	C120.235382,308.643707 132.432022,290.010132 153.001511,282.660645 
	C153.001511,294.836731 153.001511,306.665497 153.001495,318.992615 
z"/>
<path fill="#DF9596" opacity="1.000000" stroke="none" 
	d="
M174.404922,283.487305 
	C172.791016,279.988068 170.703339,276.916199 170.127258,273.583038 
	C169.446350,269.643463 168.635803,264.672974 170.385590,261.554382 
	C176.932327,249.886459 184.502045,238.792496 191.688171,227.483307 
	C192.230469,227.564590 192.772751,227.645859 193.315048,227.727142 
	C193.979660,231.502625 194.643341,235.278290 195.309067,239.053574 
	C197.126617,249.360580 199.327789,259.621582 200.570984,269.997375 
	C201.054764,274.035065 200.365540,278.848511 198.497955,282.410675 
	C193.398682,292.136719 182.149475,292.530029 174.404922,283.487305 
z"/>
<path fill="#FED0D1" opacity="1.000000" stroke="none" 
	d="
M168.030319,219.024551 
	C160.197250,232.674011 152.564346,246.444534 144.421356,259.906525 
	C141.614059,264.547546 136.730774,266.864532 131.085129,265.766174 
	C126.152443,264.806549 120.992142,258.925781 120.997360,253.402206 
	C121.008728,241.358810 125.321152,227.240387 140.148544,224.930359 
	C149.113083,223.533737 157.857574,220.724518 167.222382,218.630173 
	C167.743835,218.710373 168.030319,219.024551 168.030319,219.024551 
z"/>
<path fill="#FED0D1" opacity="1.000000" stroke="none" 
	d="
M167.604706,218.549637 
	C167.767960,218.539322 168.070358,218.689743 168.201538,218.932373 
	C168.030319,219.024551 167.743835,218.710373 167.604706,218.549637 
z"/>
<path fill="#FED0D1" opacity="1.000000" stroke="none" 
	d="
M68.660324,66.328735 
	C64.728691,59.454178 60.602497,53.032204 57.545799,46.136169 
	C55.984310,42.613403 55.967770,37.920902 59.818390,35.180782 
	C63.685413,32.428993 67.858116,34.077839 70.873940,36.714367 
	C76.227890,41.394966 81.646095,46.247105 85.895294,51.887852 
	C91.985901,59.973049 97.072495,68.817032 102.530083,77.373825 
	C103.296547,78.575546 103.736275,79.985657 104.648415,82.013229 
	C90.036400,81.705688 78.477577,76.482697 68.660324,66.328735 
z"/>
<path fill="#DF9696" opacity="1.000000" stroke="none" 
	d="
M104.040413,130.002914 
	C94.987839,130.566254 87.223434,129.533386 82.952309,120.572838 
	C79.537270,113.408295 80.935234,105.731064 86.727585,101.231903 
	C92.619659,96.655258 101.751732,96.320442 106.849144,101.936722 
	C114.485405,110.350258 121.129158,119.664619 128.195023,128.595871 
	C128.000290,129.064880 127.805565,129.533905 127.610832,130.002914 
	C119.918205,130.002914 112.225586,130.002914 104.040413,130.002914 
z"/>
</svg>